<svg xmlns="http://www.w3.org/2000/svg" width="27" height="26" fill="none" xmlns:v="https://vecta.io/nano"><path d="M7.415 25.621c-.63.491-1.275.505-1.932.041s-.877-1.078-.658-1.842l2.344-7.572-5.962-4.216c-.658-.464-.856-1.078-.595-1.842s.787-1.146 1.582-1.146h7.359l2.385-7.858c.137-.382.35-.676.638-.881S13.171 0 13.5 0s.637.102.924.306.501.499.638.881l2.385 7.858h7.359c.795 0 1.323.382 1.584 1.146s.061 1.378-.597 1.842l-5.962 4.216 2.344 7.572c.219.764 0 1.378-.658 1.842s-1.302.45-1.932-.041L13.5 20.996l-6.085 4.625z" fill="#e5e5e5"/></svg>